<?xml version="1.0" encoding="utf-8"?>
<!-- Generator: Adobe Illustrator 27.5.0, SVG Export Plug-In . SVG Version: 6.00 Build 0)  -->
<svg version="1.1" xmlns="http://www.w3.org/2000/svg" xmlns:xlink="http://www.w3.org/1999/xlink" x="0px" y="0px"
	 viewBox="0 0 500 500" style="enable-background:new 0 0 500 500;" xml:space="preserve">
<g id="BACKGROUND">
	<rect style="fill:#FFFFFF;" width="500" height="500"/>
</g>
<g id="OBJECTS">
	<g>
		<path d="M259.537,375.109c7.994-1.217,15.459-3.973,22.507-7.906c1.064-0.594,1.983-1.346,2.76-2.276
			c2.329-2.788,5.095-5.08,8.107-7.078c1.609-1.068,3.26-2.077,4.932-3.045c2.364-1.369,4.766-2.673,7.149-4.01
			c5.23-2.936,10.486-5.826,15.677-8.828c4.215-2.438,8.233-5.186,12.033-8.241c2.397-1.927,4.614-4.038,6.546-6.439
			c1.555-1.934,2.863-4.015,3.728-6.352c1.554-4.201,1.163-8.255-1.016-12.132c-0.552-0.982-1.265-1.875-1.942-2.782
			c-0.223-0.298-0.563-0.509-0.914-0.815c-0.543,0.654-1.005,1.212-1.468,1.77c-3.4,4.095-7.677,6.758-12.903,7.829
			c-1.76,0.361-3.549,0.581-5.321,0.889c-1.967,0.342-3.956,0.607-5.889,1.089c-4.45,1.108-8.47,3.204-12.238,5.761
			c-3.916,2.657-7.78,5.398-11.372,8.49c-3.167,2.726-6.727,4.779-10.569,6.372c-7.509,3.113-15.324,4.916-23.424,5.583
			c-5.392,0.444-10.647-0.119-15.782-1.78c-3.18-1.029-6.179-2.48-9.093-4.11c-0.51-0.285-1.043-0.528-1.581-0.798
			c-0.443,0.378-0.809,0.66-1.141,0.978c-1.836,1.757-3.466,3.694-4.945,5.756c-0.738,1.029-1.436,2.086-2.16,3.125
			c-0.148,0.212-0.318,0.451-0.715,0.089c0.224-0.701,0.426-1.464,0.71-2.195c1.118-2.88,2.637-5.526,4.641-7.89
			c0.371-0.438,0.946-0.775,0.933-1.484c-0.145-0.132-0.276-0.29-0.44-0.395c-4.326-2.769-8.733-5.39-13.444-7.466
			c-3.299-1.454-3.294-1.465-6.705-0.587c-0.129,0.033-0.253,0.083-0.382,0.118c-5.336,1.472-10.13,4.043-14.614,7.232
			c-5.215,3.709-9.503,8.342-13.323,13.437c-0.32,0.426-0.629,0.862-0.975,1.266c-0.259,0.302-0.559,0.31-0.863-0.085
			c0.058-0.213,0.096-0.478,0.201-0.712c0.3-0.668,0.599-1.339,0.95-1.981c2.353-4.314,5.372-8.099,9.041-11.368
			c4.988-4.444,10.633-7.775,16.923-10.022c0.329-0.117,0.843-0.051,0.814-0.752c-1.479-0.483-3.04-0.872-4.497-1.499
			c-2.049-0.882-4.012-0.749-6.003,0.072c-1.108,0.457-2.237,0.867-3.323,1.371c-2.184,1.014-4.187,2.338-6.143,3.733
			c-1.031,0.735-2.04,1.5-3.067,2.241c-0.224,0.161-0.477,0.237-0.737-0.117c0.132-0.784,0.715-1.351,1.23-1.944
			c2.566-2.961,5.611-5.297,9.142-7.004c0.371-0.179,0.945-0.176,0.983-0.859c-0.493-0.173-0.996-0.34-1.493-0.525
			c-2.872-1.069-5.768-2.077-8.606-3.226c-5.466-2.214-10.544-5.122-15.155-8.816c-2.768-2.217-5.245-4.73-7.527-7.438
			c-0.43-0.511-0.464-1.065-0.141-1.22c0.453-0.217,0.748,0.083,1.043,0.352c4.411,4.035,9.396,7.218,14.697,9.938
			c3.325,1.707,6.747,3.2,10.286,4.39c5.682,1.909,11.368,3.815,17.102,5.558c9.305,2.829,18.101,6.718,26.246,12.056
			c1.393,0.913,2.811,1.797,4.276,2.586c2.051,1.104,4.122,2.186,6.249,3.133c3.938,1.752,8.084,2.657,12.403,2.78
			c5.848,0.166,11.552-0.763,17.194-2.188c0.087-0.022,0.138-0.186,0.292-0.409c-0.331-0.101-0.613-0.21-0.905-0.275
			c-4.715-1.043-9.175-2.76-13.435-5.027c-7.763-4.132-13.732-10.047-17.709-17.903c-1.293-2.553-2.41-5.196-3.59-7.806
			c-0.769-1.699-1.498-3.417-2.265-5.117c-0.153-0.34-0.224-0.79-0.723-0.852c-0.034,0.05-0.084,0.093-0.093,0.144
			c-0.022,0.13-0.043,0.264-0.036,0.395c0.136,2.437-1.163,3.871-3.321,4.64c-0.936,0.333-1.913,0.594-2.893,0.756
			c-4.173,0.69-8.354,0.693-12.542,0.08c-11.947-1.748-22.635-6.382-32.042-13.951c-0.838-0.674-1.711-1.258-2.684-1.712
			c-8.483-3.955-17.456-6.101-26.705-7.197c-4.978-0.59-9.986-0.58-14.98-0.344c-3.055,0.144-6.115,0.487-9.134,0.975
			c-3.415,0.553-6.78,1.413-10.182,2.06c-4.692,0.893-8.765,3.09-12.581,5.838c-1.358,0.978-2.513,2.181-3.447,3.587
			c-1.309,1.97-1.582,4.092-0.814,6.297c0.369,1.057,0.879,2.098,1.504,3.025c0.703,1.042,1.56,1.994,2.436,2.903
			c1.765,1.832,3.783,3.375,5.907,4.759c2.959,1.927,5.965,3.784,8.964,5.648c4.528,2.814,9.129,5.516,13.591,8.431
			c11.725,7.658,22.336,16.633,31.571,27.191c4.617,5.278,8.683,10.973,12.574,16.797c1.592,2.383,3.159,4.784,4.812,7.125
			c1.075,1.522,2.242,2.984,3.442,4.41c1.165,1.384,2.541,2.552,4.126,3.443c2.173,1.221,4.461,1.647,6.937,1.081
			c1.715-0.392,3.31-1.043,4.782-1.966c1.805-1.133,3.566-2.338,5.322-3.546c2.31-1.59,4.678-3.076,7.271-4.168
			c4.773-2.01,9.779-2.48,14.894-2.248c5.533,0.251,11.005,1.107,16.512,1.611C248.51,375.913,254.039,375.946,259.537,375.109z"/>
		<path d="M225.283,108.452c-1.31,1.234-2.595,2.495-3.919,3.714c-8.807,8.108-18.229,15.392-28.694,21.258
			c-9.612,5.387-19.604,9.931-30.034,13.51c-6.5,2.23-13.066,4.195-19.849,5.348c-3.086,0.525-6.193,0.928-9.289,1.393
			c-2.914,0.438-5.742,1.175-8.398,2.485c-1.625,0.801-3.122,1.788-4.382,3.106c-1.859,1.945-2.693,4.257-2.414,6.935
			c0.103,0.991,0.272,1.98,0.492,2.952c0.663,2.938,1.835,5.705,2.988,8.47c3.004,7.202,5.6,14.544,7.713,22.057
			c0.18,0.639,0.367,1.288,0.653,1.884c1.879,3.913,3.253,8.022,4.721,12.094c2.192,6.079,4.352,12.168,7.166,18.001
			c2.539,5.265,5.823,10.016,9.73,14.346c2.015,2.234,4.235,4.248,6.666,6.022c0.281,0.205,0.651,0.287,1.041,0.453
			c0.113-1.151,0.142-2.155,0.32-3.133c0.441-2.422,0.88-4.849,1.453-7.242c0.423-1.765,0.354-3.44-0.388-5.074
			c-0.77-1.697-1.576-3.379-2.406-5.047c-0.712-1.431-1.52-2.815-2.213-4.255c-1.494-3.104-1.842-6.353-1.21-9.743
			c0.516-2.765,1.348-5.43,2.35-8.044c2.868-7.483,6.417-14.64,10.413-21.58c0.325-0.564,0.626-1.143,0.983-1.798
			c-0.862-0.542-1.635-1.049-2.428-1.523c-0.801-0.478-1.608-0.948-2.436-1.376c-0.828-0.428-1.673-0.826-2.532-1.187
			c-0.859-0.361-1.749-0.646-2.616-0.989c-0.824-0.326-1.788-0.295-2.702-0.972c1.349-0.273,2.463-0.117,3.577,0.092
			c3.231,0.605,6.305,1.667,9.232,3.161c0.4,0.204,0.817,0.376,1.309,0.601c0.583-0.897,1.115-1.716,1.676-2.579
			c-0.719-0.676-1.348-1.261-1.969-1.854c-3.819-3.643-7.926-6.929-12.279-9.911c-2.987-2.046-6.189-3.655-9.631-4.788
			c-0.204-0.067-0.357-0.288-0.874-0.726c0.878,0.083,1.326,0.072,1.747,0.174c3.38,0.822,6.625,2.008,9.714,3.618
			c4.885,2.545,9.219,5.846,13.244,9.58c0.518,0.481,0.94,1.105,1.732,1.382c0.435-0.563,0.849-1.075,1.238-1.606
			c2.441-3.341,5.054-6.539,7.883-9.559c2.283-2.437,4.729-4.697,7.413-6.69c2.366-1.757,4.899-3.213,7.664-4.255
			c3.132-1.181,6.329-1.536,9.618-0.804c1.56,0.347,3.126,0.673,4.677,1.055c2.153,0.53,4.331,0.787,6.541,0.593
			c1.372-0.12,2.766-0.238,4.002-1.041c-0.446-2.573-1.158-4.995-2.055-7.365c-1.918-5.066-4.344-9.874-7.314-14.407
			c-0.158-0.241-0.485-0.511,0.102-0.939c1.486,1.384,2.711,3.028,3.881,4.699c1.222,1.745,2.428,3.513,3.476,5.364
			c1.014,1.792,1.916,3.664,2.688,5.574c0.792,1.96,1.366,4.008,2.073,6.131c0.78-0.373,1.503-0.699,2.209-1.059
			c2.078-1.058,4.137-2.156,6.227-3.188c1.979-0.977,4.026-1.768,6.249-2.002c0.259-0.027,0.511-0.118,0.912-0.214
			c0.402-1.214,0.852-2.459,1.223-3.727c0.354-1.214,0.656-2.445,0.925-3.681c0.284-1.301,0.536-2.611,0.739-3.927
			c0.193-1.25,0.331-2.51,0.446-3.771c0.121-1.327,0.211-2.659,0.266-3.99c0.052-1.265,0.078-2.533,0.05-3.798
			c-0.03-1.332-0.122-2.663-0.214-3.992c-0.087-1.263-0.243-2.521-0.306-3.785c-0.063-1.271-0.537-2.513-0.379-4.033
			c0.817,0.631,0.929,1.358,1.111,2.043c1.01,3.811,1.67,7.686,1.888,11.62c0.17,3.061,0.15,6.123-0.181,9.185
			c-0.41,3.792-1.204,7.492-2.317,11.133c-0.126,0.413-0.145,0.86-0.221,1.338c0.993,0.354,1.86,0.663,2.677,0.954
			c0.327-0.161,0.575-0.262,0.801-0.399c2.423-1.472,5.051-2.379,7.83-2.89c3.02-0.555,6.067-0.87,9.131-1.01
			c6.059-0.276,12.121-0.482,18.177-0.818c2.72-0.151,5.428-0.542,8.427-0.854c-0.46-1.031-1.146-1.36-1.689-1.799
			c-6.788-5.49-12.645-11.83-17.515-19.08c-1.524-2.268-3-4.571-4.603-6.783c-1.524-2.102-3.137-4.144-4.8-6.138
			c-1.498-1.796-3.228-3.385-5.175-4.684c-1.323-0.883-2.737-1.65-4.17-2.344c-1.788-0.866-3.499-0.582-5.038,0.68
			c-0.309,0.253-0.601,0.532-0.929,0.758c-0.371,0.256-0.775,0.466-1.254,0.748c-0.654-0.563-1.268-1.06-1.846-1.595
			c-1.266-1.173-2.743-1.864-4.463-2.034c-4.671-0.462-8.866,0.622-12.415,3.812C226.556,107.276,225.914,107.858,225.283,108.452z"
			/>
		<path d="M262.823,151.312c-3.393,0.24-6.752,0.772-9.985,1.899c-0.281,0.098-0.531,0.288-0.941,0.516
			c0.504,0.319,0.816,0.566,1.167,0.73c1.748,0.82,3.465,1.726,5.269,2.402c3.367,1.261,6.784,2.386,10.182,3.562
			c3.461,1.198,6.956,2.306,10.379,3.604c4.104,1.556,7.678,3.977,10.755,7.118c1.506,1.536,2.792,3.221,3.59,5.243
			c0.094,0.238,0.275,0.442,0.42,0.668c3.407,0.668,6.542,1.954,9.388,3.868c1.655,1.113,3.191,2.401,4.786,3.604
			c0.355,0.268,0.732,0.508,1.107,0.768c1.654-1.204,3.115-2.462,4.49-3.823c3.176-3.145,6.253-6.377,8.977-9.931
			c0.083-0.108,0.293-0.119,0.742-0.287c-0.803,1.761-1.649,3.17-2.525,4.558c-0.888,1.409-1.768,2.829-2.758,4.165
			c-1.03,1.39-2.13,2.738-3.305,4.007c-1.121,1.21-2.378,2.294-3.653,3.508c1.466,1.424,2.612,3.051,4.214,4.34
			c2.133-1.558,4.009-3.256,5.798-5.039c8.113-8.088,14.872-17.18,20.126-27.48c0.375,0.684,0.1,1.222-0.086,1.766
			c-0.97,2.844-2.168,5.588-3.565,8.247c-4.807,9.142-11.255,16.964-19.068,23.687c-0.392,0.337-0.763,0.698-1.234,1.132
			c1.059,1.254,2.141,2.325,3.206,3.411c1.073,1.095,2.135,2.202,3.239,3.265c1.092,1.052,1.913,2.376,3.214,3.301
			c5.062-1.569,9.986-3.353,14.444-6.403c0.101,0.23,0.269,0.482,0.224,0.528c-0.506,0.525-1.012,1.061-1.581,1.513
			c-2.987,2.375-6.219,4.354-9.711,5.901c-0.542,0.24-1.08,0.486-1.808,0.814c0.19,0.424,0.28,0.67,0.405,0.896
			c2.156,3.866,2.803,7.987,2.24,12.36c-0.351,2.73-1.029,5.356-2.007,7.919c-0.173,0.453-0.49,0.91-0.391,1.407
			c0.193,0.059,0.254,0.096,0.313,0.092c0.132-0.007,0.269-0.015,0.392-0.057c1.306-0.45,2.316,0.029,3.241,0.945
			c2.082,2.062,4.18,4.109,6.297,6.136c1.688,1.617,3.353,3.259,4.642,5.218c0.728,1.107,1.384,2.279,1.927,3.487
			c0.892,1.985,0.873,4.035-0.048,6.009c-0.589,1.263-1.296,2.475-2,3.681c-2.183,3.74-4.394,7.464-6.578,11.203
			c-0.143,0.246-0.15,0.571-0.245,0.962c4.163-0.237,6.858,1.701,8.451,5.198c0.263,0,0.404,0.032,0.523-0.006
			c0.507-0.163,1.011-0.336,1.51-0.523c5.77-2.163,10.426-5.852,14.33-10.541c3.56-4.275,6.53-8.925,8.639-14.092
			c1.888-4.625,3.753-9.26,5.601-13.901c1.16-2.913,2.497-5.735,4.001-8.489c1.979-3.623,3.842-7.309,5.74-10.976
			c0.305-0.59,0.533-1.22,0.789-1.835c1.628-3.914,1.556-7.818-0.28-11.619c-0.983-2.033-2.073-4.04-3.344-5.903
			c-2.139-3.136-4.444-6.159-6.71-9.207c-2.386-3.209-4.841-6.367-7.207-9.59c-4.868-6.632-9.056-13.657-12.11-21.323
			c-0.246-0.618-0.508-1.234-0.81-1.826c-0.998-1.957-1.972-3.929-3.043-5.846c-0.814-1.458-1.856-2.767-3.073-3.923
			c-2.149-2.04-4.667-3.261-7.645-3.543c-1.945-0.185-3.883-0.119-5.765,0.318c-3.046,0.707-6.083,1.483-9.074,2.396
			c-7.017,2.142-14.098,3.988-21.355,5.117c-2.369,0.369-4.76,0.648-7.093,1.18c-6.782,1.548-13.658,2.289-20.589,2.648
			C272.933,150.708,267.874,150.955,262.823,151.312z"/>
		<path d="M380.268,232.347c-0.175,0.468-0.33,0.831-0.448,1.205c-1.69,5.344-3.728,10.553-6.205,15.58
			c-3.348,6.795-7.359,13.137-12.882,18.417c-0.175,0.167-0.292,0.393-0.513,0.698c2.233,0.349,4.339,0.559,6.385,1.031
			c2.069,0.478,4.111,1.126,6.107,1.857c3.752,1.374,4.451,1.796,5.541,2.883c-0.053,0.034-0.114,0.106-0.159,0.097
			c-0.385-0.074-0.778-0.133-1.15-0.252c-3.239-1.041-6.521-1.911-9.895-2.384c-3.107-0.436-6.224-0.704-9.366-0.437
			c-0.879,0.075-1.676,0.291-2.429,0.798c-2.557,1.723-5.342,2.99-8.259,3.976c-0.431,0.146-0.852,0.32-1.309,0.493
			c0,0.721,0,1.355,0,2.05c0.346,0.056,0.6,0.126,0.855,0.133c6.99,0.194,13.74,1.626,20.325,3.919
			c5.711,1.988,11.03,4.699,15.685,8.604c0.966,0.811,1.839,1.735,2.73,2.631c0.147,0.148,0.164,0.424,0.234,0.624
			c-0.182,0.091-0.252,0.157-0.292,0.142c-0.239-0.091-0.505-0.156-0.699-0.31c-2.26-1.782-4.717-3.252-7.262-4.577
			c-7.095-3.693-14.632-6.073-22.502-7.38c-2.556-0.424-5.163-0.553-7.75-0.776c-0.497-0.043-1.011,0.103-1.504,0.16
			c-0.377,3.448-0.663,6.759-1.12,10.047c-0.47,3.378-1.574,6.593-2.949,9.583c0.071,0.208,0.076,0.285,0.116,0.33
			c0.397,0.446,0.805,0.883,1.202,1.33c3.498,3.947,5.457,8.485,5.282,13.833c-0.093,2.848-0.915,5.506-2.182,8.037
			c-1.506,3.011-3.564,5.62-5.897,8.024c-2.61,2.689-5.538,4.997-8.577,7.174c-5.321,3.81-10.953,7.119-16.734,10.161
			c-6.203,3.264-12.107,7.01-17.97,10.827c-2.064,1.344-4.026,2.844-6.028,4.283c-0.251,0.181-0.596,0.342-0.464,0.783
			c0.795,0,1.597,0.078,2.38-0.013c3.572-0.417,7.144-0.845,10.706-1.339c4.816-0.667,9.604-1.596,14.438-2.053
			c6.299-0.596,12.627-0.917,18.95-1.211c6.59-0.307,13.19-0.4,19.738-1.31c2.843-0.395,5.646-0.967,8.34-1.99
			c1.814-0.689,3.544-1.538,5.093-2.724c1.983-1.518,3.246-3.485,3.791-5.931c0.368-1.652,0.383-3.296,0.138-4.963
			c-0.37-2.519-1.147-4.928-1.951-7.328c-1.692-5.055-3.262-10.146-4.445-15.347c-0.5-2.2-1.046-4.394-1.264-6.885
			c1.479-0.341,2.805-0.349,4.127-0.283c2.263,0.112,4.523,0.28,6.786,0.407c0.931,0.053,1.864,0.098,2.795,0.085
			c4.576-0.065,8.25-1.919,10.922-5.649c1.007-1.406,1.989-2.844,2.834-4.35c1.173-2.089,2.22-4.25,3.299-6.392
			c1.049-2.082,2.039-4.195,3.11-6.265c3.279-6.336,7.521-11.941,12.801-16.751c1.38-1.257,2.754-2.521,4.099-3.814
			c1.104-1.062,2.213-2.127,3.224-3.276c0.832-0.946,1.612-1.963,2.259-3.042c1.951-3.252,2.022-6.589,0.026-9.836
			c-0.83-1.351-1.85-2.611-2.93-3.778c-2.187-2.363-4.78-4.237-7.527-5.905c-3.138-1.905-6.419-3.533-9.754-5.056
			c-6.852-3.131-13.919-5.728-20.944-8.429C380.943,232.402,380.614,232.404,380.268,232.347z"/>
		<path d="M180.552,249.094c0.845,2.942,1.586,5.917,2.261,8.903c0.97,4.293,1.996,8.567,3.665,12.65
			c6.806,16.646,19.212,26.247,36.86,29.221c0.642,0.108,1.307,0.29,1.986-0.051c0-0.195,0.037-0.396-0.007-0.576
			c-0.128-0.516-0.271-1.03-0.441-1.534c-1.095-3.259-2.813-6.182-4.927-8.869c-1.524-1.937-3.117-3.822-4.712-5.702
			c-2.935-3.456-5.809-6.96-8.38-10.699c-4.214-6.128-7.634-12.653-9.906-19.76c-1.891-5.914-2.762-11.932-1.99-18.129
			c0.088-0.706-0.12-1.307-0.32-1.94c-0.562-1.777-1.15-3.547-1.647-5.342c-0.211-0.76-0.298-1.576-0.304-2.368
			c-0.017-2.249,1.247-3.417,3.524-3.326c0.398,0.016,0.794,0.084,1.19,0.138c0.445,0.061,0.889,0.134,1.338,0.202
			c0.331-0.531,0.617-0.978,0.892-1.432c1.739-2.864,3.798-5.473,6.214-7.796c4.654-4.475,9.904-8.079,15.792-10.739
			c3.603-1.628,7.344-2.796,11.281-3.258c1.514-0.178,3.04-0.257,4.659-0.389c0.18-0.456,0.351-0.954,0.568-1.432
			c0.77-1.696,1.44-3.451,2.357-5.064c3.693-6.495,9.264-10.516,16.505-12.264c2.469-0.596,4.985-0.873,7.505-1.111
			c2.521-0.238,5.045-0.438,7.566-0.667c3.848-0.35,7.694-0.723,11.544-1.06c1.514-0.133,3.035-0.194,4.788-0.302
			c-0.434-1.027-1.015-1.576-1.556-2.148c-3.04-3.214-6.722-5.438-10.859-6.916c-2.822-1.007-5.665-1.959-8.523-2.859
			c-7.129-2.247-14.132-4.78-20.621-8.573c-1.14-0.666-2.409-1.14-3.664-1.571c-1.551-0.533-3.157-0.539-4.706,0.047
			c-1.243,0.47-2.474,0.99-3.668,1.572c-1.796,0.875-3.534,1.872-5.338,2.729c-1.802,0.856-3.623,1.695-5.495,2.379
			c-3.588,1.309-7.297,1.471-11.032,0.766c-2.355-0.445-4.687-1.005-7.032-1.503c-1.388-0.295-2.77-0.244-4.166,0.018
			c-2.397,0.451-4.559,1.464-6.629,2.696c-2.766,1.645-5.203,3.714-7.5,5.953c-2.774,2.704-5.297,5.631-7.655,8.699
			c-8.105,10.544-14.221,22.187-19.001,34.558c-0.527,1.363-0.888,2.791-1.332,4.187c-0.31,0.973-0.318,1.928-0.121,2.947
			c0.474,2.457,1.366,4.726,2.71,6.829c1.302,2.037,2.87,3.845,4.689,5.43c1.457,1.27,2.932,2.521,4.437,3.732
			C175.849,238.99,178.959,243.548,180.552,249.094z"/>
		<path d="M284.423,266.734c2.665,0.011,5.332,0.073,7.995,0.013c3.475-0.078,6.901-0.566,10.243-1.555
			c2.307-0.682,4.54-1.538,6.603-2.799c1.878-1.148,3.279-2.707,4.087-4.768c0.364-0.929,0.716-1.865,1.026-2.813
			c0.539-1.645,1.053-3.298,1.557-4.954c1.284-4.223,3.004-8.255,5.241-12.065c0.369-0.629,0.69-1.294,0.966-1.969
			c0.83-2.034,1.655-4.072,2.431-6.127c1.083-2.87,1.997-5.79,2.439-8.84c0.797-5.5-0.266-10.475-4.125-14.661
			c-1.083-1.176-2.175-2.344-3.276-3.503c-2.983-3.139-5.974-6.271-8.961-9.407c-1.287-1.351-2.542-2.733-3.861-4.051
			c-2.081-2.079-4.362-3.914-6.907-5.407c-3.042-1.784-6.306-2.808-9.837-3.011c-3.204-0.184-6.39-0.022-9.577,0.3
			c-3.578,0.361-7.163,0.657-10.741,1.024c-3.444,0.352-6.895,0.675-10.321,1.163c-3.838,0.546-7.254,2.148-10.292,4.563
			c-0.798,0.634-1.427,1.365-1.859,2.303c-1.518,3.297-2.437,6.746-2.861,10.35c-0.529,4.5,0.115,8.904,0.927,13.301
			c0.032,0.175,0.184,0.329,0.358,0.624c0.471-0.448,0.896-0.834,1.302-1.239c1.814-1.813,3.842-3.317,6.309-4.094
			c1.032-0.325,1.673-0.927,2.232-1.82c3.064-4.895,7.186-8.716,12.116-11.682c2.356-1.418,4.855-2.509,7.576-2.999
			c3.745-0.674,7.184,0.042,10.09,2.575c1.248,1.088,2.376,2.333,3.442,3.605c1.154,1.377,2.179,2.861,3.246,4.309
			c1.563,2.121,3.485,3.848,5.738,5.202c1.256,0.754,2.562,1.425,3.812,2.189c1.59,0.972,3.19,1.937,4.708,3.015
			c4.786,3.397,6.863,8.247,6.941,13.933c0.073,5.322-1.902,9.906-5.977,13.428c-1.404,1.214-2.959,2.272-4.526,3.276
			c-3.09,1.978-6.097,4.063-8.952,6.369c-0.932,0.752-1.896,1.474-2.898,2.128c-3.132,2.045-6.576,2.779-10.291,2.417
			c-2.338-0.228-4.574-0.854-6.809-1.527c-3.633-1.094-7.266-2.188-10.914-3.233c-4.014-1.15-8.172-1.789-12.321-3.533
			c1.301,5.372,3.233,10.15,6.367,14.397c1.557,2.11,3.427,3.889,5.587,5.383c0.863,0.598,1.751,0.906,2.795,0.861
			c2.596-0.112,5.2-0.107,7.788-0.317C276.832,266.778,280.625,266.719,284.423,266.734z"/>
		<path d="M100.2,270.103c1.278,2.278,2.84,4.347,4.647,6.232c2.037,2.125,4.302,3.98,6.71,5.664
			c0.372,0.26,0.793,0.449,1.163,0.656c0.52-0.177,0.96-0.328,1.4-0.477c5.756-1.947,11.608-3.481,17.673-4.08
			c7.941-0.785,15.835-0.279,23.7,0.923c4.283,0.655,8.496,1.645,12.693,2.706c0.373,0.094,0.756,0.152,1.447,0.288
			c-2.677-3.773-4.901-7.469-6.549-11.49c-1.65-4.027-2.706-8.205-3.29-12.602c-0.632-0.363-1.261-0.725-1.891-1.084
			c-4.337-2.473-8.066-5.66-11.13-9.598c-1.267-1.628-2.493-3.299-3.599-5.038c-3.871-6.087-7.177-12.468-9.618-19.268
			c-1.372-3.822-2.625-7.686-3.939-11.529c-0.233-0.681-0.499-1.35-0.882-2.378c-0.622,0.871-1.024,1.395-1.385,1.945
			c-5.21,7.924-10.987,15.397-17.548,22.258c-1.38,1.443-2.704,2.95-3.937,4.52c-1.438,1.831-2.811,3.721-4.094,5.664
			c-1.547,2.343-2.72,4.888-3.54,7.58C96.208,257.637,96.786,264.019,100.2,270.103z"/>
		<path d="M283.651,327.516c0.109-0.313,0.228-0.624,0.3-0.946c1.837-8.237,5.557-15.53,11.103-21.869
			c2.324-2.656,4.836-5.147,7.241-7.732c2.586-2.781,5.219-5.523,7.701-8.395c2.663-3.082,4.919-6.47,6.872-10.05
			c0.277-0.507,0.492-1.048,0.806-1.726c-0.49-0.064-0.798-0.144-1.103-0.137c-3.956,0.093-7.844-0.406-11.684-1.332
			c-3.107-0.75-6.209-1.526-9.328-2.222c-3.321-0.742-6.684-1.263-10.091-1.326c-4.359-0.08-8.654,0.491-12.82,1.77
			c-3.5,1.074-6.935,2.357-10.419,3.487c-2.659,0.862-5.32,1.742-8.029,2.415c-7.198,1.787-14.147,1.016-20.794-2.313
			c-2.333-1.169-4.502-2.598-6.559-4.194c-3.532-2.741-7.234-5.231-10.996-7.642c-1.681-1.077-3.323-2.227-4.913-3.435
			c-3.07-2.331-5.515-5.222-7.289-8.644c-0.918-1.772-1.717-3.608-2.514-5.439c-0.718-1.648-1.352-3.333-2.044-4.993
			c-0.101-0.242-0.318-0.437-0.563-0.762c-0.046,0.328-0.091,0.46-0.077,0.587c0.037,0.33,0.091,0.66,0.155,0.986
			c1.007,5.124,2.652,10.038,4.85,14.772c3.051,6.571,7.037,12.543,11.627,18.124c2.878,3.5,5.787,6.976,8.686,10.459
			c0.081,0.098,0.212,0.154,0.408,0.291c0.246-0.038,0.578-0.053,0.889-0.145c2.419-0.711,4.857-0.752,7.319-0.265
			c2.109,0.418,4.097,1.161,5.995,2.159c2.674,1.406,5.084,3.181,7.23,5.301c1.327,1.311,2.639,2.644,3.875,4.04
			c4.892,5.523,10.43,10.287,16.583,14.353c2.279,1.506,4.531,3.058,6.733,4.674c3.987,2.926,7.759,6.087,10.561,10.422
			C283.557,327.608,283.632,327.571,283.651,327.516z"/>
		<path d="M401.307,457.052c-2.757-3.701-5.064-7.663-6.903-11.896c-1.699-3.912-3.182-7.906-4.431-11.982
			c-1.618-5.282-3.189-10.578-4.736-15.881c-2.345-8.036-6.188-15.291-11.41-21.808c-3.212-4.009-6.818-7.661-10.608-11.127
			c-0.137-0.125-0.327-0.193-0.726-0.419c0.127,1.692,0.279,3.145,0.336,4.602c0.183,4.624-0.517,9.164-1.386,13.683
			c-1.081,5.626-2.579,11.152-4.026,16.69c-1.447,5.54-2.818,11.092-3.538,16.791c-1.113,8.808-0.108,17.396,2.411,25.861
			c0.259,0.87,0.754,1.331,1.507,1.706c3.651,1.814,7.426,3.301,11.4,4.222c4.185,0.97,8.41,1.27,12.693,0.641
			c4.148-0.609,7.997-2.049,11.603-4.113c2.771-1.587,5.436-3.36,8.141-5.061c0.212-0.133,0.374-0.345,0.513-0.477
			c-0.02-0.167-0.006-0.244-0.038-0.29C401.848,457.808,401.584,457.424,401.307,457.052z"/>
		<path d="M351.806,430.714c0.854-4.654,1.985-9.239,3.169-13.815c1.702-6.574,3.427-13.143,4.385-19.88
			c0.413-2.905,0.698-5.823,0.548-8.762c-0.109-2.131-0.411-4.237-0.908-6.318c-0.274-1.147-0.786-2.076-1.789-2.768
			c-1.15-0.793-2.214-1.709-3.334-2.547c-4.973-3.717-10.225-6.988-15.754-9.811c-0.582-0.297-1.216-0.625-1.844-0.669
			c-0.979-0.07-1.993-0.037-3.008,0.372c-0.049,0.304-0.095,0.434-0.086,0.56c0.029,0.398,0.057,0.799,0.123,1.192
			c0.945,5.602,0.55,11.146-0.697,16.658c-0.944,4.171-2.418,8.164-3.986,12.13c-1.566,3.962-3.153,7.917-4.657,11.902
			c-1.744,4.622-2.97,9.397-3.799,14.261c-0.523,3.068-0.474,2.365,0.724,4.757c1.675,3.343,3.657,6.504,5.953,9.456
			c7.28,9.361,16.092,17.002,26.172,23.211c0.17,0.105,0.341,0.213,0.524,0.291c0.217,0.093,0.438,0.348,0.758-0.051
			c-0.077-0.245-0.16-0.552-0.27-0.85C350.527,450.469,349.974,440.69,351.806,430.714z"/>
		<path d="M190.009,63.971c-2.311,2.845-4.564,5.731-6.527,8.833c-2.333,3.686-4.047,7.633-5.162,11.853
			c-0.859,3.252-1.159,6.498-0.805,9.879c0.878,8.398,3.324,16.276,7.321,23.692c0.279,0.517,0.611,1.006,1.004,1.648
			c0.194-0.374,0.367-0.582,0.415-0.816c0.807-3.977,2.588-7.539,4.665-10.972c2.042-3.374,4.449-6.482,7.103-9.388
			c2.605-2.852,5.291-5.63,7.956-8.426c2.804-2.941,5.662-5.83,8.431-8.803c3.32-3.564,6.326-7.384,8.98-11.474
			c0.463-0.713,0.869-1.463,1.301-2.194c-0.422-0.673-0.757-1.246-1.128-1.795c-2.563-3.789-5.641-7.066-9.441-9.656
			c-3.961-2.701-7.967-5.344-11.692-8.376c-0.147-0.119-0.347-0.172-0.605-0.295c-0.224,0.336-0.459,0.644-0.647,0.978
			c-1.832,3.259-3.932,6.338-6.264,9.257C193.293,59.944,191.647,61.954,190.009,63.971z"/>
		<path d="M147.194,84.76c-0.153,0.671-0.133,1.313,0.075,1.964c1.177,3.682,2.436,7.328,4.188,10.789
			c2.337,4.615,5.63,8.384,9.865,11.344c2.136,1.493,4.401,2.758,6.761,3.856c3.822,1.778,7.856,2.927,11.917,3.991
			c0.17,0.045,0.374-0.044,0.562-0.07c-0.022-0.17-0.013-0.308-0.06-0.424c-0.198-0.494-0.405-0.985-0.621-1.472
			c-4.634-10.468-6.194-21.424-5.261-32.789c0.267-3.257,0.65-6.493,1.283-9.699c0.161-0.816,0.051-1.501-0.469-2.239
			c-0.683-0.968-1.211-2.069-1.663-3.171c-0.887-2.163-1.479-4.422-1.81-6.737c-0.32-2.238-0.571-4.486-0.876-6.911
			c-0.374,0.103-0.587,0.111-0.74,0.212c-2.838,1.868-5.689,3.715-8.488,5.639c-0.925,0.636-1.818,1.382-2.539,2.236
			c-1.76,2.085-3.505,4.196-5.087,6.417C150.574,72.83,148.581,78.676,147.194,84.76z"/>
		<path d="M83.197,342.098c0.465,0.258,0.936,0.507,1.414,0.743c9.008,4.44,18.501,7.15,28.531,7.847
			c5.672,0.394,11.329,0.235,16.896-1.084c4.794-1.136,9.273-2.936,12.912-6.409c0.27-0.258,0.476-0.583,0.688-0.849
			c-0.141-0.211-0.198-0.338-0.291-0.429c-0.285-0.28-0.578-0.553-0.877-0.818c-9.355-8.292-19.531-15.468-30.063-22.165
			c-0.815-0.518-1.546-0.579-2.437-0.253c-4.278,1.563-8.319,3.584-12.086,6.143c-5.766,3.916-10.491,8.821-14.027,14.845
			c-0.368,0.626-0.692,1.278-1.078,1.997C83.013,341.913,83.087,342.038,83.197,342.098z"/>
		<path d="M362.272,379.58c6.667,5.694,12.568,12.112,17.889,19.063c3.483,4.55,6.868,9.175,10.299,13.764
			c1.277,1.708,2.562,3.409,3.84,5.116c0.363,0.484,0.736,0.886,1.393,1.04c2.173,0.508,4.076,1.611,5.908,2.845
			c1.382,0.931,2.755,1.874,4.145,2.791c2.895,1.909,5.868,3.685,9.051,5.081c0.592,0.26,1.16,0.623,1.945,0.603
			c-0.03-0.507-0.012-0.97-0.093-1.416c-0.51-2.828-0.754-5.68-0.755-8.55c-0.001-2.932,0.048-5.864,0.074-8.796
			c0.027-3.066,0.051-6.133-0.401-9.177c-0.351-2.368-0.786-4.717-1.712-6.951c-0.356-0.137-0.656-0.281-0.972-0.371
			c-5.209-1.471-10.193-3.523-15.07-5.845c-3.368-1.603-6.719-3.24-10.069-4.88c-5.986-2.93-12.259-4.82-18.931-5.289
			c-2.391-0.168-4.782-0.262-7.667-0.163C361.739,379.045,361.986,379.335,362.272,379.58z"/>
		<path d="M236.852,201.051c-0.276-0.036-0.414-0.092-0.532-0.063c-0.905,0.224-1.807,0.46-2.707,0.701
			c-8.776,2.349-16.609,6.456-23.391,12.53c-2.446,2.191-4.613,4.621-6.388,7.389c-0.355,0.554-0.665,1.136-1.022,1.751
			c0.278,0.211,0.464,0.404,0.691,0.515c3.881,1.907,7.112,4.679,10.184,7.659c3.214,3.118,5.965,6.64,8.798,10.093
			c2.451,2.988,4.905,5.979,7.495,8.846c4.376,4.843,9.542,8.711,15.304,11.759c1.879,0.994,3.871,1.774,5.823,2.626
			c0.236,0.103,0.538,0.429,0.822,0.036c-0.027-0.079-0.033-0.152-0.072-0.201c-0.123-0.156-0.248-0.314-0.391-0.453
			c-4.052-3.935-6.774-8.695-8.7-13.959c-1.978-5.408-3.145-11.006-4.009-16.68c-0.933-6.128-1.728-12.274-2.218-18.452
			c-0.321-4.054-0.456-8.12,0.154-12.17C236.789,202.34,236.802,201.689,236.852,201.051z"/>
		<path d="M288.609,326.531c0.901-0.661,1.886-1.327,2.809-2.071c3.272-2.638,6.757-4.96,10.308-7.204
			c4.464-2.821,9.247-4.66,14.5-5.307c2.442-0.301,4.874-0.71,7.296-1.148c4.589-0.83,8.278-3.174,11.182-6.798
			c1.34-1.673,2.428-3.495,3.32-5.442c1.543-3.368,2.34-6.933,2.709-10.592c0.308-3.047,0.51-6.105,0.713-9.161
			c0.101-1.527,0.097-3.051-0.163-4.579c-0.349-2.05-1.516-3.365-3.406-4.068c-1.18-0.439-2.407-0.724-3.743-0.809
			c-3.157,3.481-7.204,5.4-11.78,6.592c-0.509,2.291-1.556,4.144-2.632,5.982c-0.404,0.689-0.825,1.368-1.25,2.045
			c-3.276,5.217-7.265,9.855-11.572,14.234c-1.961,1.994-3.95,3.962-5.886,5.981c-2.54,2.649-4.844,5.493-6.884,8.547
			c-2.652,3.969-4.51,8.292-5.753,12.888C288.304,325.887,288.014,326.227,288.609,326.531z"/>
		<path d="M77.822,374.765c5.929,0.028,11.859,0.115,17.787,0.042c6.571-0.082,12.748-1.919,18.658-4.672
			c3.445-1.605,6.686-3.594,9.832-5.729c5.561-3.773,10.353-8.363,14.478-13.659c0.309-0.397,0.566-0.834,0.854-1.261
			c-0.539-0.294-0.858,0.054-1.188,0.216c-3.996,1.959-8.25,3.01-12.641,3.513c-5.385,0.616-10.764,0.468-16.141-0.228
			c-9.243-1.195-17.868-4.154-25.896-8.874c-0.451-0.265-0.916-0.506-1.499-0.826c-0.295,0.588-0.588,1.096-0.815,1.633
			c-1.877,4.451-2.955,9.108-3.582,13.883c-0.652,4.963-0.713,9.963-0.935,14.953c-0.011,0.254,0.064,0.512,0.109,0.842
			C77.19,374.659,77.506,374.764,77.822,374.765z"/>
		<path d="M208.016,92.181c-3.159,3.428-6.357,6.822-9.443,10.316c-2.474,2.801-4.577,5.887-6.36,9.181
			c-1.144,2.113-2.123,4.296-2.768,6.619c-0.503,1.81-0.793,3.644-0.632,5.526c0.033,0.388,0.06,0.839,0.266,1.14
			c0.971,1.413,1.902,2.867,3.232,4.076c0.517-0.28,0.992-0.509,1.44-0.783c8.199-5.016,15.996-10.579,23.175-16.988
			c2.186-1.952,4.385-3.891,6.6-5.809c2.219-1.922,4.555-3.687,7.094-5.173c0.335-0.196,0.628-0.464,0.935-0.694
			c0.694-10.501-0.906-20.476-5.934-30.203c-0.378,0.606-0.571,0.864-0.712,1.148c-2.347,4.753-5.396,9.032-8.896,12.985
			C213.41,86.462,210.679,89.291,208.016,92.181z"/>
		<path d="M126.901,73.999c0.252,4.72,0.466,9.441,0.718,14.16c0.182,3.393,0.541,6.771,1.26,10.094
			c1.011,4.673,2.671,9.067,5.9,12.714c0.477,0.539,1.024,1.051,1.625,1.442c3.467,2.256,7.135,4.141,10.941,5.758
			c0.293,0.125,0.586,0.345,0.991,0.035c-0.107-0.711-0.604-1.268-0.944-1.883c-5.055-9.135-6.792-18.856-4.927-29.13
			c1.65-9.09,5.362-17.247,11.585-24.174c0.289-0.321,0.493-0.718,0.77-1.129c-0.392-0.254-0.66-0.45-0.946-0.61
			c-4.195-2.346-8.714-3.623-13.489-3.967c-3.529-0.254-7.059-0.136-10.552,0.463c-1.759,0.302-3.55,0.491-5.427,1.14
			c0.07,0.427,0.086,0.691,0.158,0.938C125.927,64.47,126.645,69.198,126.901,73.999z"/>
		<path d="M139.935,117.908c-6.536-3.469-12.407-7.814-17.311-13.378c-2.025-2.297-3.867-4.755-5.787-7.145
			c-0.371-0.462-0.631-1.032-1.264-1.224c-2.005-0.609-3.729-1.768-5.464-2.879c-2.525-1.617-4.996-3.317-7.495-4.976
			c-1.103-0.732-2.217-1.449-3.647-2.381c-0.069,0.927-0.118,1.442-0.144,1.959c-0.062,1.265-0.098,2.531-0.172,3.796
			c-0.291,4.997-0.401,9.992,0.202,14.976c0.434,3.586,1.266,7.076,2.525,10.466c0.297,0.8,0.747,1.347,1.546,1.699
			c2.865,1.263,5.69,2.618,8.566,3.855c1.403,0.604,2.869,1.078,4.335,1.516c3.565,1.064,7.184,1.329,10.872,0.692
			c2.578-0.446,5.053-1.211,7.454-2.214c2.459-1.027,4.885-2.131,7.319-3.215c0.151-0.067,0.246-0.262,0.362-0.392
			c-0.068-0.087-0.099-0.158-0.152-0.189C141.101,118.549,140.523,118.22,139.935,117.908z"/>
		<path d="M140.036,393.506c-0.516-1.952-1.141-3.984-1.577-6.056c-0.424-2.017-0.719-4.067-0.95-6.116
			c-0.238-2.116-0.4-4.246-0.466-6.374c-0.067-2.129-0.025-4.265,0.062-6.394c0.084-2.062,0.303-4.117,0.434-6.178
			c0.133-2.088,0.68-4.134,0.755-6.283c-0.251,0.083-0.413,0.087-0.488,0.17c-3.553,3.915-7.484,7.395-11.837,10.402
			c-0.417,0.288-0.729,0.757-1.022,1.188c-1.084,1.595-2.064,3.267-3.225,4.802c-1.365,1.805-2.857,3.515-4.332,5.234
			c-2.739,3.191-5.288,6.522-7.492,10.106c-1.78,2.895-3.481,5.836-4.839,8.96c-0.258,0.594-0.445,1.219-0.685,1.884
			c0.352,0.175,0.57,0.318,0.809,0.397c5.897,1.952,11.917,2.89,18.107,1.897c2.293-0.368,4.646-0.764,6.781-1.622
			c3.521-1.415,6.755-3.437,9.8-5.727C139.92,393.761,139.938,393.684,140.036,393.506z"/>
		<path d="M299.463,233.183c0.143,0.042,0.22,0.093,0.263,0.073c2.364-1.094,4.608-2.399,6.555-4.134
			c2.378-2.118,2.841-4.697,1.49-7.604c-0.685-1.474-1.637-2.771-2.908-3.768c-1.359-1.066-2.788-2.053-4.247-2.978
			c-1.405-0.891-2.889-1.657-4.336-2.482c-3.172-1.811-5.834-4.186-7.97-7.157c-1.05-1.46-2.106-2.924-3.265-4.296
			c-0.854-1.011-1.823-1.946-2.843-2.792c-1.328-1.101-2.928-1.52-4.654-1.523c-1.122-0.002-2.118,0.27-2.898,1.101
			c-1.003,1.067-2.092,2.076-2.948,3.252c-2.667,3.662-5.326,7.336-7.835,11.107c-4.195,6.304-5.504,13.35-4.947,20.8
			c0.154,2.067,0.695,4.056,1.489,5.988c0.613,1.491,1.56,2.613,2.959,3.374c0.261,0.142,0.516,0.443,0.871,0.05
			c-0.531-0.988-1.062-1.986-1.604-2.979c-0.738-1.353-1.321-2.768-1.64-4.277c-0.85-4.019-0.11-7.695,2.531-10.886
			c1.979-2.391,4.563-3.598,7.688-3.639c2.248-0.03,4.348,0.582,6.389,1.43c2.46,1.023,4.903,2.085,7.35,3.141
			c0.55,0.237,1.101,0.484,1.618,0.784c3.65,2.118,5.952,5.074,5.871,9.504c-0.005,0.298-0.112,0.682,0.329,0.817
			c2.4-1.967,3.591-5.071,3.064-7.981c-0.786-4.347-5.064-8.542-9.468-9.228c-1.38-0.215-2.776-0.36-4.17-0.446
			c-2.527-0.155-5.06-0.231-7.589-0.359c-2.206-0.111-4.369-0.479-6.468-1.176c-0.371-0.123-0.729-0.316-1.05-0.538
			c-0.116-0.08-0.18-0.367-0.132-0.517c0.05-0.157,0.265-0.372,0.404-0.37c0.457,0.009,0.925,0.06,1.367,0.176
			c2.404,0.635,4.85,0.858,7.327,0.81c1.399-0.027,2.799-0.072,4.198-0.085c2.065-0.02,4.135-0.104,6.196-0.012
			c5.046,0.225,8.862,2.623,11.522,6.859c1.539,2.451,2.105,5.159,1.749,8.044C299.639,231.913,299.547,232.557,299.463,233.183z"/>
		<path d="M197.071,227.12c0.752,2.911,1.918,5.667,3.129,8.41c1.532,3.47,3.012,6.962,4.525,10.44
			c0.663,1.525,1.314,3.058,2.037,4.555c1.684,3.484,4.104,6.372,7.237,8.641c1.509,1.093,3.044,2.155,4.616,3.156
			c3.541,2.255,6.99,4.635,10.325,7.186c1.373,1.05,2.795,2.051,4.273,2.945c6.083,3.677,12.601,4.806,19.578,3.289
			c4.375-0.951,8.55-2.5,12.72-4.076c0.081-0.03,0.108-0.202,0.204-0.395c-0.373,0-0.702,0-1.032,0
			c-6.989-0.001-13.576-1.675-19.806-4.797c-7.164-3.59-13.477-8.321-18.792-14.324c-4.016-4.536-7.928-9.164-11.883-13.755
			c-0.913-1.059-1.785-2.154-2.718-3.195c-1.963-2.189-4.136-4.151-6.548-5.836c-2.368-1.654-4.958-2.827-8.087-3.631
			C196.949,226.374,196.977,226.755,197.071,227.12z"/>
		<path d="M287.762,401.899c0.271-2.118,0.471-4.248-0.025-6.357c-1.087-4.619-2.698-9.057-4.744-13.337
			c-0.196-0.409-0.457-0.786-0.797-1.363c-0.346,0.77-0.617,1.353-0.872,1.945c-2.811,6.538-6.449,12.553-11.28,17.809
			c-4.676,5.087-10.18,8.963-16.695,11.35c-0.292,0.107-0.568,0.258-0.966,0.441c0.328,0.563,0.564,1.027,0.855,1.454
			c2.082,3.059,4.618,5.689,7.619,7.849c1.621,1.166,3.3,2.255,4.986,3.325c2.812,1.784,5.651,3.526,8.483,5.279
			c0.1,0.062,0.25,0.042,0.52,0.081c0.366-0.448,0.805-0.936,1.19-1.464c2.167-2.961,4.132-6.049,5.869-9.283
			C284.896,414.06,286.958,408.187,287.762,401.899z"/>
		<path d="M144.392,121.526c-1.905,0.795-3.805,1.602-5.72,2.372c-2.347,0.944-4.669,1.97-7.069,2.757
			c-4.238,1.39-8.583,1.846-13.016,1.016c-3.239-0.606-6.288-1.751-9.188-3.28c-1.766-0.932-3.461-1.998-5.198-2.985
			c-0.237-0.135-0.52-0.46-0.862-0.007c1.515,2.972,3.426,5.687,5.694,8.146c5.042,5.468,11.14,9.022,18.551,10.203
			c3.104,0.495,6.223,0.665,9.361,0.659c4.266-0.009,8.534-0.05,12.798,0.057c2.124,0.053,4.244,0.374,6.358,0.632
			c2.057,0.251,4.049,0.808,6,1.498c0.573,0.202,1.133,0.423,1.744,0.21c2.32-0.809,4.63-1.644,6.975-2.803
			c-0.192-0.282-0.245-0.418-0.344-0.494c-0.423-0.324-0.858-0.632-1.29-0.943c-5.147-3.708-10.085-7.662-14.439-12.3
			c-0.957-1.019-1.743-2.273-2.866-3.04c-1.122-0.767-2.613-0.971-3.859-1.587C146.783,121.025,145.62,121.013,144.392,121.526z"/>
		<path d="M165.972,415.287c0.922-0.855,1.946-1.623,3.011-2.292c0.782-0.491,1.228-1.108,1.593-1.934
			c1.156-2.615,2.32-5.232,3.634-7.769c2.484-4.792,5.409-9.323,8.432-13.79c0.364-0.538,0.696-1.098,1.115-1.762
			c-1.024-0.776-1.959-1.484-2.943-2.229c-0.395,0.333-0.707,0.567-0.986,0.836c-2.408,2.323-5.065,4.331-7.953,6
			c-2.533,1.464-5.129,2.823-7.746,4.132c-3.332,1.667-6.724,3.212-10.07,4.852c-5.571,2.73-10.864,5.926-15.872,9.591
			c-0.585,0.428-1.158,0.874-1.833,1.385c0.396,0.642,0.715,1.214,1.087,1.75c1.834,2.65,4.051,4.952,6.598,6.905
			c3.64,2.79,7.351,5.489,11.149,8.314c0.224-0.239,0.332-0.321,0.396-0.429c0.168-0.287,0.317-0.585,0.473-0.878
			C158.613,423.156,161.991,418.98,165.972,415.287z"/>
		<path d="M202.312,400.931c-1.419-1.667-2.699-3.475-3.854-5.336c-1.114-1.795-1.99-3.738-2.943-5.565
			c-1.588,0.043-3.124,0.214-4.635,0.09c-1.504-0.124-2.984-0.544-4.583-0.856c-0.096,0.133-0.218,0.29-0.328,0.456
			c-1.592,2.381-3.174,4.769-4.778,7.142c-0.428,0.633-0.571,1.317-0.636,2.065c-0.34,3.889,0.061,7.718,0.9,11.51
			c1.286,5.818,4.045,10.966,7.295,15.884c0.069,0.105,0.198,0.17,0.394,0.333c10.859-2.029,19.757-8.831,22.72-17.364
			c-1.668-1.27-3.424-2.473-5.02-3.861C205.24,404.034,203.688,402.547,202.312,400.931z"/>
		<path d="M279.543,379.26c0.188-0.495,0.369-1.013,0.422-1.534c0.045-0.44,0.019-0.966-0.186-1.336
			c-0.477-0.858-0.912-1.774-1.813-2.482c-0.6,0.199-1.225,0.404-1.847,0.614c-2.143,0.724-4.269,1.503-6.432,2.164
			c-4.845,1.48-9.753,2.713-14.819,3.132c-2.385,0.197-4.785,0.211-7.178,0.321c-0.508,0.023-1.014,0.102-1.487,0.151
			c-1.166,9.738,1.014,23.454,5.159,30.129c0.294-0.09,0.493-0.125,0.67-0.208c4.173-1.97,8.117-4.309,11.614-7.341
			C271.068,396.432,276.084,388.368,279.543,379.26z"/>
		<path d="M310.411,398.357c-1.677-1.711-3.294-3.485-5.029-5.134c-3.293-3.13-6.908-5.843-10.893-8.045
			c-2.22-1.227-4.529-2.245-6.982-2.914c-0.299-0.082-0.618-0.092-0.998-0.146c-0.146,0.846,0.295,1.395,0.536,1.974
			c3.016,7.251,4.821,14.797,5.325,22.626c0.437,6.796,0.055,13.568-0.976,20.304c-0.452,2.953-0.848,5.914-1.323,9.246
			c0.462-0.647,0.72-0.995,0.965-1.352c1.053-1.534,2.012-3.144,3.172-4.593c3.327-4.157,7.441-7.409,12.037-10.052
			c2.212-1.272,4.18-2.838,6.007-4.598c0.325-0.313,0.583-0.697,0.843-1.013c-0.953-4.936-1.742-9.793-1.962-14.722
			C311.103,399.289,310.847,398.802,310.411,398.357z"/>
		<path d="M142.101,351.902c-0.256,1.238-0.442,2.49-0.662,3.736c-1.043,5.915-1.635,11.874-1.657,17.88
			c-0.022,6.075,0.712,12.092,1.559,18.095c0.035,0.247,0.177,0.479,0.27,0.719c0.798-0.064,1.234-0.612,1.739-1.01
			c4.881-3.846,9.352-8.123,13.375-12.86c2.808-3.307,5.35-6.808,7.436-10.621c0.344-0.628,0.814-1.217,0.839-2.085
			c-5.62-7.38-11.73-14.392-18.622-21.067c-1.342,1.994-2.555,3.739-3.696,5.53C142.371,350.708,142.221,351.323,142.101,351.902z"
			/>
		<path d="M358.379,364.155c-2.173,0.316-4.359,0.552-6.546,0.764c-2.652,0.256-5.31,0.446-7.964,0.678
			c-0.287,0.025-0.695-0.081-0.737,0.432c0.092,0.087,0.175,0.201,0.286,0.264c4.7,2.667,9.194,5.647,13.479,8.938
			c0.518,0.398,1.038,0.503,1.671,0.442c4.197-0.4,8.379-0.189,12.563,0.272c4.332,0.478,8.552,1.4,12.542,3.155
			c3.41,1.5,6.778,3.109,10.1,4.797c5.581,2.835,11.106,5.781,16.848,8.29c0.729,0.318,1.465,0.622,2.433,1.032
			c-0.07-1.129-0.518-1.802-0.858-2.502c-2.808-5.784-6.885-10.582-11.609-14.874c-2.892-2.627-6.14-4.66-9.802-6.049
			c-8.78-3.33-17.807-5.472-27.227-5.807C361.823,363.928,360.107,363.904,358.379,364.155z"/>
		<path d="M269.952,320.428c-2.558-1.807-5.138-3.585-7.729-5.344c-5.487-3.725-10.45-8.044-14.901-12.961
			c-1.476-1.63-3.001-3.217-4.551-4.776c-1.843-1.854-3.931-3.394-6.244-4.624c-1.36-0.723-2.77-1.328-4.277-1.646
			c-1.815-0.382-3.646-0.624-5.556,0.007c0.099,0.962,0.641,1.643,1.07,2.453c3.188,0.999,5.142,3.381,6.661,6.219
			c0.409,0.763,0.804,1.535,1.174,2.317c0.655,1.385,1.268,2.79,1.933,4.171c0.925,1.92,1.826,3.855,2.836,5.73
			c3.545,6.58,8.674,11.588,15.222,15.16c4.478,2.443,9.203,4.213,14.223,5.147c2.686,0.5,5.384,0.929,8.14,0.759
			c0.887-0.055,1.719-0.185,2.586-0.959c-0.133-0.422-0.227-0.806-0.374-1.168c-0.686-1.7-1.819-3.095-3.069-4.401
			C274.924,324.241,272.515,322.239,269.952,320.428z"/>
		<path d="M160.054,127.404c4.244,3.974,8.881,7.449,13.71,10.672c0.215,0.143,0.464,0.236,0.645,0.327
			c4.034-1.49,13.459-6.418,14.997-7.82c-2.251-3.299-4.5-6.594-6.882-10.084c-2.283-0.644-4.784-1.334-7.277-2.054
			c-5.477-1.581-10.655-3.81-15.35-7.09c-5.828-4.071-9.876-9.454-12.004-16.25c-0.417-1.333-0.739-2.696-1.113-4.043
			c-0.062-0.224-0.003-0.555-0.533-0.556c-0.058,0.273-0.152,0.57-0.179,0.872c-0.089,0.996-0.173,1.992-0.223,2.99
			c-0.282,5.659,0.319,11.193,2.624,16.426C151.237,117.082,155.019,122.689,160.054,127.404z"/>
		<path d="M105.961,75.179c2.19,3.343,4.273,6.756,6.438,10.115c2.165,3.359,4.314,6.731,6.578,10.022
			c2.307,3.353,4.921,6.468,7.8,9.352c0.297,0.298,0.653,0.538,1.285,1.051c-0.26-0.807-0.382-1.243-0.539-1.667
			c-1.267-3.393-1.919-6.923-2.329-10.505c-0.517-4.507-0.661-9.037-0.729-13.566c-0.093-6.202-0.407-12.383-1.297-18.527
			c-0.104-0.718-0.149-1.448-0.633-2.272c-4.428,1.188-8.884,2.208-13.465,2.601c-4.678,0.402-9.29-0.012-14.058-0.537
			c0.32,0.405,0.612,0.837,0.965,1.212C99.691,66.396,102.999,70.656,105.961,75.179z"/>
		<path d="M326.559,394.651c1.276-3.362,2.434-6.761,3.226-10.275c1.214-5.385,1.489-10.801,0.55-16.259
			c-0.089-0.517-0.107-1.069-0.702-1.475c-3.749,0.316-7.594,0.474-11.295,1.026c-0.168,0.238-0.265,0.335-0.313,0.451
			c-0.126,0.308-0.243,0.62-0.341,0.938c-2.161,7.038-3.314,14.25-3.658,21.595c-0.34,7.282,0.182,14.508,1.637,21.651
			c0.57,2.8,1.326,5.562,2.026,8.335c0.1,0.397,0.173,0.885,0.644,1.069c0.108-0.092,0.183-0.125,0.201-0.177
			c0.064-0.187,0.136-0.377,0.157-0.572c0.568-5.121,1.822-10.081,3.572-14.914C323.645,402.228,325.119,398.445,326.559,394.651z"
			/>
		<path d="M150.096,400.425c3.102-1.684,6.277-3.234,9.422-4.837c2.849-1.452,5.727-2.849,8.546-4.357
			c3.54-1.894,6.807-4.193,9.729-6.962c0.275-0.26,0.502-0.572,0.831-0.951c-3.797-4.059-6.925-8.532-10.32-13.119
			c-8.72,14.36-20.611,24.639-35.805,31.062c-0.132,2.608,1.773,8.097,3.396,9.768c0.198-0.17,0.411-0.329,0.597-0.516
			C140.515,406.46,145.091,403.142,150.096,400.425z"/>
		<path d="M424.142,450.069c-1.049-0.564-1.993-1.327-2.972-2.018c-8.873-6.257-16.663-13.687-23.604-22.005
			c-3.198-3.832-6.192-7.833-9.288-11.75c-0.386-0.488-0.645-1.109-1.366-1.479c0.056,0.328,0.068,0.521,0.122,0.7
			c1.04,3.438,2.121,6.865,3.121,10.314c1.779,6.136,3.574,12.264,5.898,18.224c1.869,4.794,4.174,9.358,7.039,13.634
			c0.361,0.538,0.621,1.182,1.387,1.543c0.749-0.422,1.564-0.856,2.355-1.329c3.577-2.136,7.443-3.147,11.611-3.107
			c3.033,0.03,5.95,0.579,8.776,1.665c0.319,0.122,0.673,0.154,1.299,0.292C427.142,452.822,426.053,451.096,424.142,450.069z"/>
		<path d="M291.214,370.505c-2.913,0.334-5.795,0.865-8.61,1.706c-0.479,0.143-0.924,0.4-1.488,0.65
			c0.661,1.1,1.245,2.059,1.817,3.025c0.572,0.966,1.131,1.939,1.651,2.832c3.837,0.649,5.834,1.2,8.696,2.608
			c6.488,3.191,12.107,7.48,16.534,13.252c0.227,0.296,0.36,0.723,1.094,0.755c0.14-4.555,0.325-9.11,0.962-13.633
			c0.642-4.553,1.753-8.999,2.872-13.579c-0.973-0.137-1.83-0.029-2.68,0.064C305.111,368.95,298.16,369.708,291.214,370.505z"/>
		<path d="M114.946,376.889c1.232-1.485,2.475-2.961,3.703-4.45c0.333-0.404,0.63-0.839,0.943-1.26
			c-0.074-0.104-0.147-0.208-0.221-0.312c-0.286,0.116-0.586,0.206-0.856,0.352c-4.976,2.698-10.169,4.932-15.337,7.225
			c-4.132,1.834-8.26,3.686-12.316,5.682c-4.307,2.119-8.329,4.726-12.101,7.703c-0.278,0.219-0.755,0.363-0.581,0.937
			c0.253,0,0.515,0.02,0.774-0.003c2.747-0.245,5.451,0.023,8.109,0.723c1.928,0.507,3.861,1.01,5.757,1.621
			c3.101,0.999,6.171,2.092,9.261,3.125c0.347,0.116,0.74,0.099,1.072,0.138c0.63-1.742,1.164-3.385,1.814-4.982
			C107.42,387.364,110.797,381.892,114.946,376.889z"/>
		<path d="M179.062,70.011c-0.445,1.934-0.704,3.91-1.058,5.93c0.214-0.057,0.303-0.053,0.33-0.092
			c0.186-0.269,0.383-0.535,0.535-0.824c1.708-3.253,3.749-6.288,6.03-9.161c1.531-1.929,3.105-3.825,4.699-5.702
			c3.318-3.909,6.618-7.831,9.567-12.033c0.414-0.59,0.812-1.191,1.251-1.836c-0.605-0.602-1.121-1.114-1.636-1.627
			c-0.472-0.47-0.948-0.935-1.412-1.413c-0.51-0.525-1.015-1.056-1.509-1.596c-0.449-0.491-0.891-0.989-1.32-1.499
			c-0.471-0.56-0.93-1.132-1.381-1.708c-0.41-0.524-0.812-1.055-1.198-1.597c-0.424-0.596-0.837-1.202-1.235-1.816
			c-0.362-0.558-0.685-1.142-1.051-1.697c-0.373-0.565-0.524-1.305-1.263-1.803c-0.332,0.744-0.633,1.331-0.857,1.946
			c-0.18,0.495-0.296,1.019-0.391,1.538c-1.157,6.352-2.643,12.629-4.245,18.883C181.547,59.251,180.3,64.631,179.062,70.011z"/>
		<path d="M369.026,361.169c0.767,0.163,1.279,0.281,1.794,0.378c2.615,0.495,5.241,0.934,7.843,1.486
			c3.854,0.817,7.523,2.236,11.21,3.589c0.541,0.198,1.104,0.337,1.762,0.535c0.671-1.35,1.333-2.577,1.901-3.846
			c1.541-3.449,3.515-6.572,6.513-8.958c0.15-0.12,0.255-0.297,0.369-0.434c-0.03-0.089-0.031-0.169-0.071-0.201
			c-0.205-0.164-0.404-0.344-0.632-0.467c-3.182-1.708-6.515-3.035-10.029-3.888c-2.414-0.586-4.857-0.86-7.326-0.431
			c-1.498,0.261-3.05,0.266-4.604,0.877c-0.685,2.473-1.717,4.616-3.174,6.561C373.129,358.308,371.196,359.698,369.026,361.169z"/>
		<path d="M284.529,233.526c0.526-0.023,1.071-0.116,1.564-0.295c2.317-0.841,2.342-1.916,0.872-3.493
			c-0.836-0.897-1.908-1.452-3.009-1.928c-2.506-1.083-5.023-2.141-7.553-3.167c-0.798-0.324-1.639-0.564-2.48-0.759
			c-4.32-1.003-7.858,0.862-9.463,4.972c-0.615,1.573-0.982,3.226-0.73,4.894c0.447,2.96,1.045,5.896,1.588,8.841
			c0.103,0.562,0.443,0.95,0.96,1.197c0.96,0.461,1.915,0.933,2.873,1.4c0.809,0.394,1.651,0.424,2.534,0.314
			c5.681-0.704,11.043-2.42,16.119-5.046c0.461-0.238,0.88-0.555,1.332-0.844c0-1.406,0-2.729,0-4.094
			c-0.234,0.038-0.452,0.019-0.608,0.108c-1.88,1.064-3.928,1.18-6.012,1.078c-0.865-0.043-1.73-0.111-2.589-0.221
			c-3.71-0.476-7.057-1.888-10.116-4.004c-0.827-0.572-1.539-1.271-1.944-2.231c-0.554-1.313-0.268-2.584,0.949-3.314
			c0.721-0.433,1.583-0.751,2.415-0.855c2.448-0.307,4.78,0.187,6.918,1.433c0.565,0.33,1.099,0.765,1.534,1.253
			c0.673,0.755,0.498,1.759-0.426,2.152c-0.843,0.358-1.78,0.496-2.679,0.717c-0.191,0.047-0.406-0.002-0.595,0.048
			c-0.201,0.053-0.549-0.144-0.585,0.368c0.278,0.129,0.56,0.291,0.862,0.395C278.941,233.364,281.712,233.648,284.529,233.526z"/>
		<path d="M210.561,380.178c-2.056,1.465-4.073,2.986-6.072,4.528c-1.739,1.342-3.491,2.656-5.427,3.708
			c-0.268,0.145-0.471,0.408-0.673,0.589c2.45,6.756,9.114,15.445,14.142,18.494c3.468-6.357,3.985-21.205,1.626-28.916
			C212.825,378.809,211.638,379.411,210.561,380.178z"/>
		<path d="M178.896,411.798c-0.602-2.687-0.992-5.421-1.482-8.174c-4.817,5.569-10.714,26.136-9.51,33.368
			c0.343-0.442,0.626-0.778,0.876-1.136c1.16-1.658,2.553-3.101,4.305-4.103c1.436-0.822,2.933-1.606,4.498-2.119
			c2.459-0.806,4.997-1.369,7.502-2.036c0.424-0.113,0.944-0.049,1.127-0.55c-1.429-2.443-2.89-4.822-4.231-7.267
			C180.601,417.265,179.523,414.598,178.896,411.798z"/>
		<path d="M289.518,408.865c-0.876,2.384-1.547,4.46-2.401,6.458c-0.862,2.018-1.832,4-2.893,5.921
			c-1.061,1.922-2.228,3.794-3.468,5.606c-1.228,1.796-2.605,3.49-3.89,5.192c1.315,1.389,2.637,2.621,3.757,4.015
			c1.08,1.344,2.016,2.818,2.894,4.306c0.907,1.538,1.668,3.163,2.696,5.14c0.676-1.954,1.603-3.359,1.648-5.098
			c0.163-6.336,1.015-12.617,1.531-18.926c0.304-3.72,0.486-7.45,0.285-11.186C289.658,409.931,289.598,409.57,289.518,408.865z"/>
		<path d="M96.374,378.343c0.506-0.259,1.008-0.525,1.512-0.788c-2.37-0.283-4.671-0.266-6.966-0.366
			c-2.395-0.104-4.786-0.317-7.178-0.488c-2.322-0.166-4.643-0.34-7.096-0.52c-0.751,3.376-1.344,6.58-2.193,9.714
			c-0.846,3.122-1.95,6.175-2.971,9.353c0.839-0.084,1.307-0.638,1.776-1.173c3.909-4.461,8.572-7.993,13.705-10.894
			C90.03,381.447,93.232,379.949,96.374,378.343z"/>
		<path d="M382.077,331.704c-1.156-1.102-2.334-2.183-3.535-3.236c-1.605-1.408-3.328-2.658-5.205-3.685
			c-0.266-0.146-0.556-0.414-0.896,0.04c0.654,1.626,1.361,3.272,1.977,4.951c0.619,1.684,1.178,3.393,1.707,5.108
			c0.529,1.716,1.073,3.434,1.452,5.186c0.374,1.73,0.55,3.504,0.813,5.26c3.122-0.568,9.404-4.697,11.583-7.578
			c-0.208-0.157-0.402-0.34-0.628-0.467C386.66,335.764,384.302,333.824,382.077,331.704z"/>
		<path d="M252.106,214.152c0.224-0.605,0.433-1.216,0.786-2.207c-0.62,0.496-0.928,0.708-1.196,0.962
			c-1.694,1.611-3.09,3.473-4.529,5.305c-0.586,0.746-0.792,1.438-0.607,2.368c1.065,5.35,1.754,10.756,2.327,16.179
			c0.223,2.111,0.568,4.21,0.847,6.241c2.513,1.57,8.692,2.866,11.766,2.505c0.005-0.423-0.37-0.509-0.625-0.676
			c-4.202-2.748-7.066-6.586-9.097-11.111c-1.442-3.213-2.085-6.566-1.891-10.093C250.069,220.332,250.972,217.218,252.106,214.152z
			"/>
		<path d="M166.114,433.62c0.096-5.202,0.678-10.348,2.081-15.379c0.093-0.334,0.076-0.699,0.121-1.164
			c-2.822,1.912-9.52,9.362-11.927,13.257c3.755,3.458,6.944,7.252,9.322,11.769c0.651-1.217,0.653-1.217,0.613-2.302
			C166.249,437.74,166.076,435.678,166.114,433.62z"/>
		<path d="M422.345,446.55c0.187,0.153,0.391,0.394,0.674,0.053c-2.407-4.525-4.299-9.27-5.629-14.38
			c-0.427-0.161-0.728-0.312-1.047-0.388c-3.928-0.925-7.519-2.643-10.956-4.7c-1.825-1.092-3.585-2.293-5.39-3.419
			c-0.219-0.137-0.44-0.539-0.828-0.196c0.115,0.179,0.206,0.357,0.331,0.508C406.343,432.318,414.027,439.755,422.345,446.55z"/>
		<path d="M175.928,65.113c0.165,0.555,0.449,1.076,0.679,1.612c0.131-0.015,0.262-0.03,0.393-0.044
			c0.132-0.429,0.268-0.858,0.394-1.289c1.192-4.086,2.354-8.182,3.582-12.257c1.247-4.14,2.585-8.253,3.509-12.483
			c0.057-0.261,0.081-0.53,0.137-0.904c-0.219,0.127-0.295,0.146-0.33,0.195c-0.269,0.378-0.535,0.758-0.794,1.143
			c-2.553,3.802-5.759,6.964-9.424,9.686c-0.572,0.425-1.262,0.739-1.582,1.306c0.561,2.324,1.056,4.525,1.629,6.706
			C174.678,60.907,175.301,63.011,175.928,65.113z"/>
		<path d="M415.522,348.22c-0.68-0.816-1.422-1.126-2.112-1.495c-3.528-1.888-7.197-3.45-11.021-4.632
			c-3.43-1.061-6.899-2.001-10.222-3.386c-0.109-0.046-0.254-0.006-0.505-0.006c-0.494,0.591-1.032,1.26-1.598,1.905
			c-0.526,0.6-1.058,1.199-1.631,1.754c-0.62,0.601-1.284,1.158-1.94,1.721c-0.632,0.543-1.409,0.915-2.04,1.562
			c0.248,0.109,0.361,0.202,0.471,0.2c3.059-0.067,6.118-0.22,9.176-0.203c5.685,0.032,11.281,0.8,16.727,2.453
			C412.338,348.551,413.793,348.689,415.522,348.22z"/>
		<path d="M97.901,69.245c0.31,2.463,0.709,4.857,0.887,7.269c0.185,2.502,0.156,5.019,0.223,7.632
			c4.799,1.662,8.792,4.682,13.219,6.953C109.918,85.91,100.248,71.341,97.901,69.245z"/>
		<path d="M399.044,350.529c1.139,0.659,2.238,1.386,3.356,2.084c0.796-0.393,1.504-0.745,2.215-1.094
			c0.715-0.35,1.451-0.663,2.142-1.055c0.653-0.371,1.518-0.369,2.062-1.084c-3.298-0.74-11.034-1.232-13.404-0.786
			C396.824,349.342,397.955,349.9,399.044,350.529z"/>
		<path d="M278.848,230.317c0.399-0.031,0.582-0.646,0.288-0.94c-0.278-0.278-0.573-0.562-0.913-0.751
			c-1.601-0.889-3.336-1.284-5.155-1.169c-0.768,0.049-1.597,0.09-2.444,0.92c1.297,0.311,2.391,0.53,3.458,0.841
			c1.078,0.314,2.118,0.764,3.2,1.06C277.772,230.412,278.328,230.357,278.848,230.317z"/>
	</g>
</g>
</svg>
